<?xml version="1.0" encoding="utf-8"?>
<!DOCTYPE svg PUBLIC "-//W3C//DTD SVG 1.1//EN" "http://www.w3.org/Graphics/SVG/1.1/DTD/svg11.dtd">
<svg version="1.1" id="Layer_1" xmlns="http://www.w3.org/2000/svg" xmlns:xlink="http://www.w3.org/1999/xlink" x="0px" y="0px"
	 viewBox="0 0 1649.8032 1649.8032" enable-background="new 0 0 1649.8032 1649.8032" xml:space="preserve">
<g>
	<linearGradient id="SVGID_1_" gradientUnits="userSpaceOnUse" x1="1174.4011" y1="1199.5353" x2="302.4011" y2="1495.5353">
		<stop  offset="0" style="stop-color:#8FD9FF"/>
		<stop  offset="1" style="stop-color:#005A97"/>
	</linearGradient>
	<path fill="url(#SVGID_1_)" d="M1129.3434,1185.5632c12.699-133.3132,10.5593-258.618,8.2264-320.4229l-143.7966,249.063
		l0.2117,0.3142c-0.0488,0.0328-0.2675,0.1794-0.64,0.4279l-0.493,0.8541h-0.7924
		c-17.7061,11.7334-154.6073,101.3115-316.7206,175.4233c-101.9248,46.5959-193.8532,78.1162-273.2319,93.6855
		c-51.2694,10.0562-97.4708,13.4342-138.3306,10.1848c144.3976,142.1157,342.5172,229.8083,561.1252,229.8083
		c60.0491,0,118.5476-6.6301,174.8169-19.1731c29.5822-34.9309,54.8085-82.5996,75.3447-142.5306
		C1100.6436,1388.5493,1118.906,1295.1396,1129.3434,1185.5632z"/>
	<linearGradient id="SVGID_2_" gradientUnits="userSpaceOnUse" x1="482.4607" y1="445.8673" x2="1354.4402" y2="167.5832">
		<stop  offset="0" style="stop-color:#FFF33B"/>
		<stop  offset="1" style="stop-color:#E93E3A"/>
	</linearGradient>
	<path fill="url(#SVGID_2_)" d="M656.9514,534.0035h0.7925c17.7064-11.7336,154.6073-101.3115,316.7205-175.4234
		c101.9248-46.5958,193.853-78.1162,273.2318-93.6854c51.2694-10.0563,97.4708-13.4343,138.3307-10.1849
		C1241.6292,112.5942,1043.5096,24.9016,824.9016,24.9016c-60.0491,0-118.5476,6.6301-174.817,19.173
		c-29.582,34.9311-54.8083,82.5997-75.3447,142.5306c-25.5801,74.6484-43.8427,168.0583-54.2801,277.6346
		c-12.699,133.3133-10.5593,258.618-8.2264,320.423l143.7965-249.063l-0.2115-0.3142c0.0487-0.0328,0.2673-0.1794,0.6399-0.4278
		L656.9514,534.0035z"/>
	<linearGradient id="SVGID_3_" gradientUnits="userSpaceOnUse" x1="980.2329" y1="339.8292" x2="1672.2721" y2="947.8005">
		<stop  offset="0" style="stop-color:#8CC63F"/>
		<stop  offset="0.1085" style="stop-color:#90C03D"/>
		<stop  offset="0.2559" style="stop-color:#9AAE38"/>
		<stop  offset="0.4256" style="stop-color:#AA922E"/>
		<stop  offset="0.612" style="stop-color:#C16A22"/>
		<stop  offset="0.8095" style="stop-color:#DF3812"/>
		<stop  offset="1" style="stop-color:#FF0000"/>
	</linearGradient>
	<path fill="url(#SVGID_3_)" d="M1252.6016,289.107c-77.4375,15.1711-167.4641,46.0602-267.5786,91.8093
		c-121.8022,55.659-229.2493,120.1644-281.6075,153.0872h287.593l0.1664-0.3403c0.0529,0.0258,0.2892,0.1418,0.6906,0.3403h0.9865
		l0.396,0.6862c19.0148,9.4673,165.042,83.2381,310.2813,186.5763c91.3157,64.9715,164.5774,128.8236,217.75,189.783
		c34.4314,39.4731,60.5011,77.8907,78.1187,114.9888c16.6426-64.2667,25.5039-131.6661,25.5039-201.1362
		c0-209.0386-80.1853-399.3416-211.4622-541.8556C1368.4514,274.949,1314.6484,276.9506,1252.6016,289.107z"/>
	<linearGradient id="SVGID_4_" gradientUnits="userSpaceOnUse" x1="1322.2429" y1="706.0499" x2="1162.2429" y2="1614.0498">
		<stop  offset="0" style="stop-color:#FF49C1"/>
		<stop  offset="0.0965" style="stop-color:#F947C2"/>
		<stop  offset="0.2206" style="stop-color:#E943C6"/>
		<stop  offset="0.36" style="stop-color:#CF3BCD"/>
		<stop  offset="0.5105" style="stop-color:#AA31D6"/>
		<stop  offset="0.6699" style="stop-color:#7A23E1"/>
		<stop  offset="0.835" style="stop-color:#4113EF"/>
		<stop  offset="1" style="stop-color:#0000FF"/>
	</linearGradient>
	<path fill="url(#SVGID_4_)" d="M1502.7632,927.4033c-51.8573-59.4773-123.6213-121.998-213.2986-185.8253
		c-109.103-77.6543-218.6899-138.4536-273.3811-167.3357l143.7966,249.063l0.3779-0.0261c0.004,0.0587,0.0217,0.3212,0.0505,0.7682
		l0.493,0.8542l-0.3961,0.6861c1.3085,21.2008,10.4347,184.5495-6.4392,361.9997
		c-10.6091,111.5674-29.2759,206.9398-55.4819,283.4685c-16.969,49.5552-37.2048,91.3409-60.5239,125.1475
		c261.8225-72.1638,469.8518-274.058,550.5939-532.208C1573.1006,1020.8887,1544.4214,975.1819,1502.7632,927.4033z"/>
	<linearGradient id="SVGID_5_" gradientUnits="userSpaceOnUse" x1="649.1365" y1="1300.1323" x2="15.1366" y2="654.1323">
		<stop  offset="0" style="stop-color:#C3D7FF"/>
		<stop  offset="1" style="stop-color:#00CBA5"/>
	</linearGradient>
	<path fill="url(#SVGID_5_)" d="M397.2016,1360.696c77.4375-15.1711,167.4641-46.0602,267.5786-91.8092
		c121.8022-55.6591,229.2494-120.1644,281.6077-153.0873H658.7948l-0.1664,0.3403c-0.0529-0.0259-0.2892-0.1418-0.6906-0.3403
		h-0.9865l-0.396-0.6862c-19.0148-9.4673-165.042-83.2382-310.2813-186.5763c-91.3156-64.9715-164.5772-128.8236-217.7499-189.783
		c-34.4315-39.473-60.5012-77.8906-78.1188-114.9888C33.7628,688.032,24.9016,755.4315,24.9016,824.9016
		c0,209.0385,80.1852,399.3416,211.4622,541.8555C281.3518,1374.8542,335.1548,1372.8525,397.2016,1360.696z"/>
	<linearGradient id="SVGID_6_" gradientUnits="userSpaceOnUse" x1="327.6806" y1="961.9545" x2="467.6806" y2="33.9545">
		<stop  offset="0" style="stop-color:#EDE928"/>
		<stop  offset="1" style="stop-color:#F37E31"/>
	</linearGradient>
	<path fill="url(#SVGID_6_)" d="M147.04,722.3998c51.8573,59.4772,123.6213,121.998,213.2984,185.8253
		c109.1033,77.6542,218.6902,138.4536,273.3813,167.3357L489.923,826.4979l-0.3779,0.026c-0.004-0.0586-0.0217-0.3212-0.0505-0.7681
		l-0.4931-0.8542l0.3961-0.6862c-1.3083-21.2006-10.4347-184.5494,6.4392-361.9998
		c10.6092-111.5673,29.2759-206.9397,55.482-283.4684c16.969-49.5551,37.2048-91.341,60.5239-125.1474
		C350.0202,125.7637,141.9909,327.6578,61.2489,585.8079C76.7026,628.9146,105.3818,674.6212,147.04,722.3998z"/>
</g>
</svg>
