<svg width="128" height="36" viewBox="0 0 128 36" fill="none" xmlns="http://www.w3.org/2000/svg">
<path fill-rule="evenodd" clip-rule="evenodd" d="M52.9924 0.0216131C53.051 0.0809432 53.0655 0.168243 53.0357 0.286056C53.0068 0.549651 52.9482 0.960723 52.8597 1.51758C56.5673 1.4591 59.4358 1.59132 61.466 1.91339C61.6717 1.94306 61.7151 2.06087 61.5986 2.26598C61.2747 2.82369 60.6855 3.08728 59.8328 3.05762C57.6853 2.96947 55.3014 3.01354 52.6829 3.18984C52.2417 8.17695 52.0215 13.8235 52.0215 20.1294C52.0215 25.4691 52.2119 29.7078 52.5945 32.8455C55.8608 32.7574 56.2238 32.8422 58.1656 33.1651C58.4011 33.1939 58.4598 33.3117 58.3425 33.5168C58.0185 34.0737 57.4447 34.3525 56.6209 34.3525C53.9726 34.3237 53.3877 34.472 50.3883 34.7814C48.2782 35.0001 46.2914 35.2806 44.2034 35.9561C44.0265 36.0146 43.9092 36.0146 43.8497 35.9561C43.8208 35.8977 43.8208 35.7798 43.8497 35.6044C44.1439 34.4305 44.7033 33.7262 45.5271 33.4922C47.3507 32.9642 48.6489 32.9608 50.9613 32.8896C50.6969 32.5667 50.5354 32.1861 50.4767 31.7454C50.2404 29.6629 50.1239 26.7735 50.1239 23.0781C50.1239 14.9821 50.4912 8.39648 51.2266 3.32206C48.2842 3.55684 45.607 3.99673 43.1942 4.64173C42.9885 4.70106 42.8559 4.70106 42.7972 4.64173C42.7088 4.58325 42.6943 4.46628 42.753 4.28999C43.0463 3.17543 43.5913 2.51517 44.3862 2.31006C45.8569 1.92865 48.2399 1.66506 51.536 1.51758C51.7707 0.755611 52.183 0.257238 52.7713 0.0216131C52.8886 -0.00720436 52.9626 -0.00720436 52.9924 0.0216131ZM11.4752 0.814432C13.9755 0.784767 15.8297 1.97306 17.0361 4.37847C17.9483 6.16685 18.3454 8.11796 18.228 10.2301C18.0801 12.7533 17.2861 14.2196 15.845 14.6299C15.6682 14.6892 15.55 14.7028 15.4922 14.6739C15.4327 14.6155 15.4327 14.4841 15.4922 14.279C15.7855 13.1102 15.9334 11.838 15.9334 10.464C15.9334 8.18492 15.55 6.24059 14.7857 4.63275C13.9619 2.87912 12.8882 2.03155 11.5636 2.08918C9.68048 2.14936 7.73871 3.78856 5.73742 7.01019C3.53125 10.6429 2.38352 14.7875 2.29596 19.4441C2.23645 23.2225 2.91318 26.2772 4.3253 28.6055C5.73742 30.9338 7.65029 32.0687 10.0631 32.0093C12.0048 31.9797 13.7043 31.1372 15.1606 29.4802C16.6126 27.8281 18.3858 25.2509 18.4241 21.8831C18.5351 16.1551 18.9822 11.5815 19.7634 8.16144C19.9692 7.25285 20.3662 6.69514 20.9554 6.49003C21.1322 6.4307 21.2351 6.4307 21.2648 6.49003C21.2648 6.5197 21.2495 6.607 21.2206 6.75363C20.4844 10.861 20.1171 16.5219 20.1171 23.7373V27.3895C20.7394 24.3687 21.6151 21.8455 22.7433 19.8215C23.0102 19.3231 23.3214 19.0739 23.6776 19.0739C23.9148 19.0739 24.1826 19.1917 24.4784 19.4257C25.0719 19.8952 25.3694 20.7174 25.3694 21.8904C25.3099 27.0818 25.7069 29.8093 26.5605 30.0737C26.9142 30.1915 27.2959 29.8754 27.7082 29.1278C27.9191 28.7439 28.0899 28.315 28.2243 27.8421C28.1843 27.4666 28.158 27.0682 28.1495 26.6419C28.1197 24.5594 28.3543 22.7405 28.8551 21.1861C29.0608 20.5411 29.4434 20.1597 30.0028 20.0419C30.1201 20.0419 30.2239 20.1003 30.3123 20.2182C29.9289 22.0362 29.7384 23.8695 29.7384 25.7172C29.7384 28.8854 30.0912 30.5874 30.7969 30.8221C31.2092 30.9688 31.7023 30.6018 32.2762 29.722C32.85 28.8422 33.2538 27.7268 33.4893 26.3775C33.497 26.3402 33.5055 26.3071 33.514 26.2775C33.293 24.9112 33.1799 23.305 33.1799 21.4497C33.1799 18.8392 33.4298 15.9354 33.9306 12.7383C34.666 8.30892 35.6369 6.09421 36.8432 6.09421C37.225 6.09421 37.5939 6.32899 37.9468 6.7977C38.7417 7.79529 39.1378 9.45314 39.1378 11.7696C39.1378 14.0572 38.7706 16.3897 38.0352 18.7654C37.2411 21.2293 36.2541 22.9897 35.0783 24.0466C35.3129 28.5049 36.0636 30.734 37.3295 30.734C37.8872 30.734 38.4764 30.3153 39.0945 29.4804C39.6335 28.7507 40.0654 27.8505 40.4029 26.7979C40.1206 25.3239 39.9761 23.5474 39.9761 21.4497C39.9761 18.8392 40.226 15.9354 40.7268 12.7383C41.4622 8.30892 42.4322 6.09421 43.6395 6.09421C44.022 6.09421 44.3902 6.32899 44.743 6.7977C45.537 7.79529 45.9349 9.45314 45.9349 11.7696C45.9349 14.0572 45.5668 16.3897 44.8314 18.7654C44.0365 21.2293 43.0511 22.9897 41.8745 24.0466C42.11 28.5049 42.8599 30.734 44.1249 30.734C44.6835 30.734 45.2726 30.3153 45.8907 29.4804C46.5088 28.643 46.9942 27.5954 47.347 26.3342C47.4354 26.0698 47.5239 26.041 47.6114 26.2452C47.7585 26.5097 47.7883 27.0377 47.6998 27.8294C47.6114 28.827 47.3173 29.722 46.8174 30.5136C46.2282 31.5104 45.4631 32.0096 44.5228 32.0096C44.2575 32.0096 43.9923 31.9655 43.7279 31.8782C42.4076 31.5061 41.4401 30.3543 40.8169 28.4379C40.6783 29.1931 40.4165 29.8864 40.0212 30.5136C39.432 31.5104 38.6677 32.0096 37.7257 32.0096C37.4613 32.0096 37.1969 31.9655 36.9317 31.8782C35.5603 31.4917 34.5673 30.2661 33.9484 28.2142C33.8702 29.1651 33.6296 29.983 33.2249 30.6679C32.6953 31.5629 32.033 32.0096 31.239 32.0096C31.0324 32.0096 30.8122 31.9655 30.5767 31.8782C29.7325 31.5765 29.1101 30.9238 28.7055 29.9254C28.3799 30.7857 27.8128 31.2171 27.0017 31.2171C26.796 31.2171 26.5894 31.1739 26.3845 31.0857C24.9129 30.5874 24.0449 29.4575 23.7805 27.698C23.6036 26.4953 23.5152 24.3535 23.5152 21.2734C23.4557 20.864 23.3503 20.8191 23.2015 21.142C21.6789 24.3984 20.7836 27.9624 20.5141 31.8333C20.4852 32.1562 20.3415 32.274 20.0822 32.1859C19.1615 31.8621 18.6582 31.1154 18.5724 29.9424C18.5087 29.1678 18.4623 28.3165 18.433 27.3886C17.8905 28.7877 17.109 30.0129 16.2421 30.9092C14.8299 32.3763 13.0488 33.168 10.9022 33.2858C8.07708 33.4324 5.6201 32.4204 3.53125 30.2498C1.2069 27.8155 0.0294185 24.4566 0.000512861 20.173C-0.0292429 14.9231 1.2358 10.3327 3.7965 6.40163C6.14975 2.73503 8.7096 0.872915 11.4752 0.814432ZM96.0933 9.83336C96.2098 9.80455 96.2838 9.80455 96.3135 9.83336C96.3424 9.86303 96.3424 9.95118 96.3135 10.0978C96.1069 11.1539 95.8867 12.6498 95.6512 14.5857C98.3284 14.5272 100.697 14.6645 102.758 14.9959C102.904 15.0264 102.934 15.118 102.845 15.2688C102.551 15.6935 102.124 15.8918 101.566 15.8621C99.5356 15.774 97.5191 15.774 95.5186 15.8621C95.2542 18.3913 95.0918 20.8052 95.034 23.1013C94.915 28.1019 95.4013 30.6014 96.4904 30.6014C96.9316 30.6014 97.4017 30.2497 97.9025 29.5454C98.3233 28.9529 98.6489 28.1706 98.8827 27.2027C98.9201 26.9238 98.9592 26.6373 99.0051 26.3339C99.3282 24.2218 99.5195 22.7699 99.579 21.9774C98.6668 21.5087 98.24 20.673 98.2987 19.4694C98.3284 18.649 98.5052 17.9887 98.8283 17.4903C99.0936 17.0793 99.3869 16.8733 99.7116 16.8733C100.417 16.8733 100.77 18.237 100.77 20.9654C102.211 21.0544 103.507 20.3204 104.654 18.7651C104.831 18.5015 105.052 18.5015 105.316 18.7651C105.757 19.2355 105.978 19.6898 105.978 20.1297C105.978 20.3356 105.934 20.5552 105.846 20.7899C104.786 23.1072 104.257 25.5567 104.257 28.1375C104.257 30.0734 104.654 31.0422 105.449 31.0422C106.462 31.0422 107.343 29.8318 108.09 27.4205C108.072 27.1696 108.058 26.9128 108.053 26.6416C108.023 24.5591 108.258 22.741 108.759 21.1857C108.964 20.5407 109.347 20.1593 109.906 20.0415C110.023 20.0415 110.127 20.1009 110.215 20.2178C109.832 22.0367 109.642 23.87 109.642 25.7177C109.642 28.8859 109.994 30.5879 110.701 30.8218C111.112 30.9693 111.605 30.6014 112.179 29.7217C112.527 29.1885 112.804 28.5579 113.028 27.8528C112.891 27.2967 112.819 26.7034 112.819 26.0703C112.819 25.5126 112.877 24.9413 112.995 24.3531C113.319 22.5351 113.863 21.0976 114.628 20.0415C115.334 19.1033 116.099 18.6337 116.923 18.6337C117.305 18.6337 117.673 18.7515 118.027 18.9855C119.027 19.6898 119.527 20.7018 119.527 22.0215C119.527 22.4919 119.468 22.975 119.35 23.4733C119.055 24.7057 118.46 25.6881 117.563 26.4221C116.666 27.1552 115.716 27.5519 114.716 27.6095C114.893 29.2818 115.349 30.2497 116.084 30.5141C116.29 30.6014 116.526 30.6455 116.791 30.6455C117.644 30.6455 118.505 30.2573 119.373 29.4801C119.997 28.9207 120.502 28.2265 120.89 27.401C120.856 27.2662 120.814 27.1018 120.763 26.906C120.527 25.9669 120.601 25.2931 120.984 24.8812C121.16 24.7057 121.307 25.0134 121.425 25.8059C122.189 21.8452 123.248 19.2355 124.602 17.9743C124.866 17.7099 125.146 17.5776 125.44 17.5776C125.794 17.5776 126.131 17.7539 126.456 18.1057C126.632 18.3108 126.602 18.5015 126.368 18.6778C125.955 19.0295 125.75 19.6016 125.75 20.3933C125.75 21.6256 126.205 23.2691 127.118 25.3219C127.706 26.7009 128 27.8595 128 28.7969C128 29.7657 127.691 30.5353 127.074 31.1074C126.456 31.6795 125.764 31.966 124.999 31.966C123.499 31.966 122.292 30.9532 121.381 28.93C121.321 29.0766 121.204 29.2377 121.027 29.414C121.004 29.4318 120.984 29.4411 120.964 29.453C120.723 29.8937 120.43 30.2861 120.079 30.6243C119.299 31.371 118.38 31.7457 117.32 31.7457C116.791 31.7457 116.261 31.6431 115.731 31.438C114.996 31.1447 114.363 30.5726 113.834 29.7217C113.767 29.6208 113.706 29.5157 113.646 29.4114C113.523 29.87 113.352 30.2904 113.128 30.6675C112.598 31.5626 111.936 32.0092 111.142 32.0092C110.936 32.0092 110.714 31.966 110.48 31.8779C109.505 31.5295 108.823 30.7167 108.434 29.4386C107.944 31.3871 107.066 32.361 105.802 32.361C104.654 32.361 103.786 31.7304 103.197 30.4701C102.726 29.5013 102.492 28.402 102.492 27.1696C102.492 25.527 102.83 23.7234 103.507 21.7579C102.8 22.0816 101.991 22.2418 101.079 22.2418H100.726C100.696 22.8012 100.594 24.1421 100.417 26.2627C100.269 28.0307 100.196 29.4157 100.196 30.4158C100.196 31.182 100.24 31.8592 100.329 32.4483C100.358 32.5958 100.329 32.6839 100.24 32.7136C100.181 32.7721 100.079 32.7721 99.9318 32.7136C99.182 32.4737 98.7654 31.8168 98.6736 30.7523C98.1932 31.4414 97.5845 31.7897 96.8432 31.7897C96.6366 31.7897 96.4164 31.7601 96.1809 31.7016C94.9745 31.4075 94.1507 30.5574 93.7095 29.1495C93.3566 27.9468 93.224 26.011 93.3124 23.342C93.3711 20.9077 93.621 18.4133 94.0623 15.8621C92.9741 15.9494 91.885 16.0969 90.7968 16.302C90.6497 16.3309 90.5613 16.302 90.5324 16.2139C90.4737 16.1554 90.4737 16.0817 90.5324 15.9935C90.6497 15.3189 91.091 14.9383 91.8561 14.8493C92.3858 14.7917 93.1798 14.7332 94.2391 14.6739C94.5919 12.9431 94.8861 11.6819 95.1216 10.8894C95.2687 10.3614 95.5917 10.0097 96.0933 9.83336ZM74.0586 6.00573C74.1759 5.97691 74.2499 5.97691 74.2788 6.00573C74.3383 6.03539 74.3519 6.10913 74.323 6.22525C73.2934 11.5353 72.8072 17.2411 72.8667 23.342C72.8956 25.1015 72.9551 26.4653 73.0435 27.4341C73.2203 29.4877 73.5578 30.6167 74.0586 30.8218C74.4114 30.9693 74.8229 30.6167 75.2939 29.7657C75.5336 29.3326 75.7385 28.8266 75.9094 28.2503C75.8261 27.5993 75.7793 26.878 75.7793 26.0703C75.7793 24.0166 76.0446 22.0079 76.5734 20.0415C76.8089 19.1617 77.2204 18.6778 77.8095 18.5896C77.9566 18.5608 78.0595 18.5608 78.1181 18.5896C78.1479 18.6193 78.1479 18.7074 78.1181 18.8541C77.7364 20.8188 77.5451 22.975 77.5451 25.3219C77.5451 27.2289 77.7058 28.6215 78.0306 29.5013C78.295 30.2353 78.6928 30.6014 79.2216 30.6014C80.0454 30.6014 80.6193 29.1207 80.9432 26.1576L81.5613 20.6577C81.7084 19.8076 82.1641 19.2931 82.9292 19.1177C83.0763 19.0889 83.1792 19.1033 83.2378 19.1617C83.2676 19.1914 83.2676 19.2796 83.2378 19.4262C82.9139 21.8011 82.7532 23.9573 82.7532 25.894C82.7532 28.9156 83.1639 30.4251 83.9885 30.4251C84.3124 30.4251 84.6576 30.0369 85.0257 29.2597C85.2774 28.7274 85.4729 28.1113 85.6217 27.4205C85.5877 27.2832 85.5435 27.112 85.4891 26.906C85.2536 25.9669 85.3275 25.2931 85.7093 24.8812C85.8861 24.7057 86.0332 25.0134 86.1513 25.8059C86.9165 21.8452 87.9749 19.2355 89.3284 17.9743C89.5937 17.7099 89.8734 17.5776 90.1675 17.5776C90.5203 17.5776 90.8578 17.7539 91.1826 18.1057C91.3586 18.3108 91.3288 18.5015 91.0942 18.6778C90.6819 19.0295 90.4761 19.6016 90.4761 20.3933C90.4761 21.6256 90.9318 23.2691 91.844 25.3219C92.4323 26.7009 92.7265 27.8595 92.7265 28.7969C92.7265 29.7657 92.4179 30.5353 91.8007 31.1074C91.1826 31.6795 90.4906 31.966 89.7263 31.966C88.3014 31.966 87.1418 31.0515 86.2483 29.2275C85.9796 30.8447 85.2723 31.6575 84.1211 31.6575C82.9139 31.6575 82.0467 30.8218 81.5171 29.1495C81.1345 30.4116 80.5309 31.2769 79.7071 31.7457C79.3543 31.9508 78.9717 32.0533 78.5602 32.0533C77.9124 32.0533 77.3827 31.8041 76.9713 31.3058C76.774 31.0583 76.6023 30.7659 76.4544 30.4268C76.0497 31.5109 75.4274 32.0533 74.5882 32.0533C74.3817 32.0533 74.1759 32.0245 73.9702 31.966C72.5581 31.4965 71.6603 30.1768 71.2777 28.0062C70.8654 30.6167 69.8214 31.9219 68.144 31.9219C66.9376 31.9219 66.0109 31.3914 65.364 30.3328C65.3062 30.2395 65.2534 30.1412 65.2016 30.0429C65.1633 30.1302 65.1225 30.2141 65.0775 30.2938C64.6804 30.9981 64.1431 31.3498 63.4664 31.3498C61.7304 31.3498 60.6864 30.1912 60.3327 27.8731C60.1567 26.6721 60.0683 24.5294 60.0683 21.4493C60.0088 21.0391 59.9059 20.995 59.7597 21.3171C58.288 24.5447 57.3758 28.0062 57.023 31.7016C56.9932 32.0245 56.8606 32.1559 56.626 32.0974C55.7137 31.9219 55.2283 31.4524 55.1696 30.6896C55.0217 29.1936 54.9928 27.3018 55.0812 25.0134C55.1696 22.5495 55.3456 20.6289 55.6109 19.2499C55.758 18.5167 56.1405 18.0616 56.7577 17.8853C56.9048 17.8565 57.0077 17.8565 57.0672 17.8853C57.1259 17.915 57.1403 18.0031 57.1114 18.1497C56.6991 20.9374 56.5665 24.1048 56.7144 27.6536C57.3903 24.4269 58.2583 21.8748 59.3184 19.9975C59.6118 19.4694 59.9212 19.2058 60.2451 19.2058C60.745 19.2058 61.1718 19.4999 61.5246 20.0856C61.7899 20.5263 61.9225 21.1857 61.9225 22.0655C61.863 27.2578 62.26 29.9717 63.1136 30.2056C63.5251 30.3234 63.9374 29.9793 64.3497 29.1716C64.4687 28.9376 64.5674 28.6893 64.6549 28.435C64.5691 27.9799 64.5257 27.4951 64.5257 26.9781C64.5257 26.183 64.6141 25.3304 64.7901 24.4175C65.1718 22.4749 65.7754 20.9603 66.6001 19.8712C67.4231 18.782 68.2622 18.237 69.1157 18.237C69.9098 18.237 70.601 18.7363 71.1893 19.7339C71.543 14.4535 72.1755 10.1571 73.0877 6.84143C73.205 6.43121 73.5289 6.15321 74.0586 6.00573ZM69.6326 19.5135C69.1276 19.3974 68.5402 19.9542 67.8719 21.1857C67.2029 22.4181 66.7497 23.87 66.5125 25.5423C66.4233 26.1873 66.3791 26.789 66.3791 27.3451C66.3791 28.4613 66.5346 29.3335 66.8466 29.9632C67.1587 30.5947 67.5081 30.9252 67.8941 30.9532C68.5478 31.0133 69.2161 30.2785 69.9004 28.7537C70.6418 27.0526 70.9836 25.1176 70.9249 22.9453C70.8943 21.9486 70.731 21.1129 70.4343 20.4373C70.1963 19.8813 69.9293 19.5728 69.6326 19.5135ZM124.293 20.6136C123.645 21.6409 122.896 23.9285 122.042 27.4781C122.512 28.4749 123.116 29.2674 123.852 29.853C124.499 30.3811 125.102 30.6455 125.661 30.6455C126.279 30.6455 126.588 30.309 126.588 29.6343C126.588 29.047 126.191 27.8299 125.396 25.9813C124.602 24.1336 124.205 22.6673 124.205 21.5816C124.205 21.2298 124.234 20.9077 124.293 20.6136ZM89.0198 20.6136C88.372 21.6409 87.6221 23.9285 86.7694 27.4781C87.2395 28.4749 87.8423 29.2674 88.5786 29.853C89.2255 30.3811 89.8283 30.6455 90.3877 30.6455C91.0058 30.6455 91.3144 30.309 91.3144 29.6343C91.3144 29.047 90.9174 27.8299 90.1233 25.9813C89.3284 24.1336 88.9314 22.6673 88.9314 21.5816C88.9314 21.2298 88.9603 20.9077 89.0198 20.6136ZM117.497 19.8212C117.026 19.705 116.496 20.189 115.908 21.273C115.261 22.4469 114.863 23.8115 114.716 25.366C114.658 26.0406 114.643 26.539 114.673 26.8619C115.731 26.6272 116.585 25.8796 117.232 24.6176C117.761 23.5912 118.027 22.4919 118.027 21.3171C118.027 20.4094 117.85 19.9093 117.497 19.8212ZM37.1527 7.89785C36.8279 7.72155 36.4462 8.76322 36.005 11.0212C35.5637 13.2808 35.2687 15.7455 35.1225 18.4137C35.063 19.5876 35.0341 21.0539 35.0341 22.8134C36.7404 20.1156 37.5939 16.2295 37.5939 11.1542C37.5939 9.12937 37.446 8.04533 37.1527 7.89785ZM43.9489 7.89785C43.6241 7.72155 43.2424 8.76322 42.8012 11.0212C42.36 13.2808 42.0649 15.7455 41.9187 18.4137C41.8592 19.5876 41.8303 21.0539 41.8303 22.8134C43.5366 20.1156 44.3902 16.2295 44.3902 11.1542C44.3902 9.12937 44.2422 8.04533 43.9489 7.89785ZM30.1354 16.918C30.6939 16.8298 31.0178 17.1375 31.1062 17.8418C31.1649 18.2529 31.0765 18.6046 30.8418 18.8979C30.6055 19.192 30.3266 19.3675 30.0027 19.4259C29.6788 19.4844 29.4144 19.4192 29.2087 19.2285C29.0021 19.0377 28.9281 18.7513 28.9876 18.3699C29.105 17.4901 29.4884 17.0061 30.1354 16.918ZM110.866 16.918C111.423 16.8298 111.747 17.1375 111.836 17.8418C111.894 18.2529 111.806 18.6046 111.571 18.8979C111.336 19.192 111.056 19.3675 110.733 19.4259C110.409 19.4844 110.144 19.4192 109.938 19.2285C109.732 19.0377 109.658 18.7513 109.718 18.3699C109.834 17.4901 110.218 17.0061 110.866 16.918Z" fill="white"/>
</svg>
