<svg width="128" height="78" fill="none" xmlns="http://www.w3.org/2000/svg"><path fill-rule="evenodd" clip-rule="evenodd" d="M36.646 63.444c.449 0 .876.058 1.281.178a5.3 5.3 0 0 1 1.19.514v2.713c-.285-.25-.6-.46-.937-.637a2.315 2.315 0 0 0-1.085-.26c-.438 0-.78.121-1.03.365-.251.24-.375.583-.375 1.019 0 .387.105.718.32 1.002.211.28.474.547.786.804.312.257.651.51 1.02.766.368.257.709.551 1.021.89.312.336.575.73.786 1.177.214.449.319.992.319 1.63 0 .62-.086 1.203-.263 1.737a3.7 3.7 0 0 1-2.07 2.322c-.504.224-1.083.336-1.733.336-.4 0-.816-.059-1.254-.179a3.43 3.43 0 0 1-1.145-.532V74.63c.324.226.657.407.996.544.335.137.71.205 1.124.205.449 0 .828-.137 1.142-.41.312-.275.468-.65.468-1.124 0-.274-.051-.506-.152-.7a2.019 2.019 0 0 0-.383-.525 3.66 3.66 0 0 0-.523-.431c-.194-.13-.39-.265-.592-.402-.398-.275-.76-.547-1.084-.823a4.402 4.402 0 0 1-.826-.907 3.877 3.877 0 0 1-.514-1.095 4.738 4.738 0 0 1-.18-1.365c0-.563.08-1.091.245-1.591.161-.499.396-.938.702-1.32.305-.38.69-.68 1.154-.907.46-.224.992-.336 1.592-.336Zm64.338 0a4.5 4.5 0 0 1 1.282.178c.405.118.803.29 1.19.514v2.713a4.858 4.858 0 0 0-.937-.637 2.326 2.326 0 0 0-1.085-.26c-.44 0-.781.121-1.032.365-.25.24-.373.583-.373 1.019 0 .387.104.718.318 1.002.211.28.474.547.786.804.312.257.651.51 1.02.766.37.257.709.551 1.023.89.312.336.573.73.786 1.177.211.449.32.992.32 1.63 0 .62-.089 1.203-.265 1.737a3.7 3.7 0 0 1-2.069 2.322c-.507.224-1.084.336-1.733.336-.4 0-.819-.059-1.257-.179a3.455 3.455 0 0 1-1.142-.532V74.63c.326.226.655.407.994.544.337.137.712.205 1.125.205.448 0 .828-.137 1.141-.41.312-.275.468-.65.468-1.124a1.52 1.52 0 0 0-.148-.7 2.124 2.124 0 0 0-.385-.525 3.614 3.614 0 0 0-.524-.431c-.194-.13-.39-.265-.59-.402a13.47 13.47 0 0 1-1.087-.823 4.449 4.449 0 0 1-.824-.907 3.828 3.828 0 0 1-.514-1.095 4.738 4.738 0 0 1-.18-1.365c0-.563.08-1.091.244-1.591a4.12 4.12 0 0 1 .703-1.32c.304-.38.69-.68 1.152-.907.462-.224.992-.336 1.593-.336Zm-51.897 0c1.073 0 1.959.309 2.66.927.698.617 1.199 1.425 1.498 2.422l-2.719 1.047c-.036-.173-.08-.367-.13-.578a2.031 2.031 0 0 0-.234-.59 1.552 1.552 0 0 0-.411-.46c-.17-.123-.385-.186-.647-.186a1.272 1.272 0 0 0-.808.225c-.222.161-.413.38-.569.654-.156.276-.28.587-.377.935-.091.35-.164.698-.213 1.048-.05.35-.082.686-.095 1.01-.012.327-.017.599-.017.825 0 .361.015.812.047 1.348a7.29 7.29 0 0 0 .253 1.551c.137.498.35.924.646 1.272.293.348.697.525 1.209.525.348 0 .634-.103.853-.31.217-.205.386-.458.504-.757.12-.3.198-.614.235-.945.038-.33.057-.621.057-.87h-1.782v-2.62h4.573v1.104c0 .75-.06 1.535-.177 2.358a7.776 7.776 0 0 1-.667 2.255 4.543 4.543 0 0 1-1.378 1.692c-.592.45-1.363.673-2.311.673-.638 0-1.204-.106-1.697-.317a4.267 4.267 0 0 1-1.302-.862 5.07 5.07 0 0 1-.946-1.253 7.975 7.975 0 0 1-.629-1.515 10.671 10.671 0 0 1-.356-1.637 12.225 12.225 0 0 1-.112-1.618c0-.81.074-1.648.227-2.516.148-.867.415-1.66.793-2.376a5.054 5.054 0 0 1 1.548-1.77c.65-.46 1.472-.69 2.474-.69Zm65.422.225v2.618h-2.829v3.07h2.494v2.618h-2.494v3.181h2.868v2.62h-5.659V63.67h5.62Zm-111.7.001c.449 0 .959.03 1.528.092a4.663 4.663 0 0 1 1.619.486c.514.263.944.664 1.292 1.208.35.542.526 1.293.526 2.253 0 .787-.158 1.496-.476 2.126-.32.629-.828 1.136-1.529 1.524l2.456 6.417H5.283l-2.456-6.512H2.79v6.512H0V63.67h2.808Zm20.683 0v6.304h.036l2.327-6.305h2.846l-2.604 6.51 2.941 7.598h-2.941l-2.569-7.187h-.036v7.187h-2.791V63.669h2.791Zm37.415 0c.45 0 .958.03 1.529.092a4.675 4.675 0 0 1 1.618.486c.513.263.945.664 1.293 1.208.35.542.526 1.293.526 2.253 0 .787-.16 1.496-.478 2.126-.318.629-.828 1.136-1.527 1.524l2.454 6.417h-2.94l-2.456-6.512h-.038v6.512h-2.79V63.67h2.81Zm15.495 0 3.39 14.106h-2.979l-.523-2.377h-2.83l-.506 2.377h-2.772L73.46 63.67h2.942Zm45.509 0 3.486 8.512.036-.036a6.204 6.204 0 0 1-.179-1.05c-.03-.361-.047-.722-.047-1.084V63.67H128v14.105h-2.641l-3.448-8.512-.038.038.131 1.42.019.58v6.474h-2.793V63.67h2.681Zm-106.193 0v14.106h-2.793V63.67h2.793Zm70.877 0 3.486 8.512.036-.036a6.106 6.106 0 0 1-.179-1.05 12.163 12.163 0 0 1-.047-1.084V63.67h2.793v14.105h-2.641l-3.448-8.512-.038.038.131 1.42.02.58v6.474h-2.794V63.67h2.681Zm-11.749 3.628h-.036l-.303 2.133-.596 3.761h1.965l-.712-3.76-.318-2.134Zm-71.479-1.33-.203.003H2.79v3.759l.488.019c.638 0 1.093-.19 1.369-.57.274-.38.41-.864.41-1.451 0-.25-.03-.485-.092-.711a1.397 1.397 0 0 0-.318-.578 1.372 1.372 0 0 0-.592-.367 2.555 2.555 0 0 0-.89-.101l.203-.002Zm58.1 0-.202.003h-.377v3.759l.488.019c.637 0 1.092-.19 1.368-.57.275-.38.412-.864.412-1.451 0-.25-.03-.485-.094-.711a1.397 1.397 0 0 0-.318-.578 1.383 1.383 0 0 0-.592-.367 2.55 2.55 0 0 0-.887-.101l.202-.002Zm11.6-6.135c.388 0 .711.141.974.42.263.282.392.615.392 1.003 0 .374-.137.694-.41.963a1.376 1.376 0 0 1-.995.402 1.35 1.35 0 0 1-.973-.402 1.303 1.303 0 0 1-.411-.963c0-.4.137-.738.411-1.012.276-.274.613-.41 1.011-.41Zm3.899 0c.386 0 .712.141.97.42.265.282.395.615.395 1.003 0 .374-.137.694-.413.963a1.363 1.363 0 0 1-.99.402c-.376 0-.701-.133-.977-.402a1.31 1.31 0 0 1-.412-.963c0-.4.14-.738.412-1.012.276-.274.615-.41 1.015-.41ZM65.488 0c18.994 0 34.323 15.218 34.43 34.184a34.254 34.254 0 0 1-3.525 15.37l-4.97-3.902-3.162 2.563c-.257.21-.588.304-.92.266l-4.706-.549c-.023-.004-.046-.006-.068-.008a1.227 1.227 0 0 0-.745.198l-3.964 2.569a1.233 1.233 0 0 1-1.706-.367L73.97 46.94l-1.997 1.677 5.2 4.72.02.02c.606.57.644 1.521.082 2.137a1.53 1.53 0 0 1-2.157.107c-.002 0-.002 0-.002-.002l-1.88-1.707-3.108 1.53-.015.008a1.23 1.23 0 0 1-1.417-.257l-.01-.01-1.667-1.77a1.236 1.236 0 0 0-1.371-.29l-3.566 1.483c-.459.19-.988.085-1.342-.265l-3.311-3.289a1.237 1.237 0 0 0-1.362-.257L52.27 52.43c-.411.177-.89.118-1.245-.154l-3.127-2.41a1.232 1.232 0 0 0-1.53.015l-3.031 2.453a1.235 1.235 0 0 1-1.735-.183l-3.012-3.72-3.252 2.555a33.543 33.543 0 0 1-1.388-2.797A34.211 34.211 0 0 1 31.06 34.38C31.06 15.393 46.475 0 65.488 0ZM53.941 36.38 40.993 46.544l1.06 1.31a1.234 1.234 0 0 0 1.725.19l.01-.008 2.536-2.05a1.234 1.234 0 0 1 1.529-.016l3.606 2.785a1.24 1.24 0 0 0 1.247.154l4.046-1.76a1.232 1.232 0 0 1 1.36.256l3.335 3.312c.354.352.883.455 1.342.265l3.633-1.512a1.239 1.239 0 0 1 1.365.287l.006.006 1.567 1.662c.005.005.007.01.013.013.373.382.948.483 1.428.247l-10.21-9.269-2.645-2.4-4.007-3.636Zm29.26 2.81-6.87 5.768.731 1.135a1.23 1.23 0 0 0 1.706.365l2.314-1.5.034-.02c.215-.13.462-.189.708-.175l.074.005 4.52.53c.33.04.66-.058.92-.266l1.624-1.315-5.761-4.527ZM65.488 24.972c-5.127 0-9.314 4.114-9.419 9.212l4.172 3.785 2.174 1.974 4.166 3.783c4.684-.542 8.332-4.525 8.332-9.345 0-5.188-4.23-9.41-9.425-9.41Zm-12.025 7.883H47.42a1.53 1.53 0 0 0-1.53 1.526 1.53 1.53 0 0 0 1.53 1.527h2.17l3.872-3.036v-.017Zm30.094 0h-4.51a1.528 1.528 0 1 0 0 3.053h4.51a1.526 1.526 0 1 0 0-3.053Zm-4.212-12.311a1.528 1.528 0 0 0-2.16 0l-3.194 3.184a1.532 1.532 0 0 0 0 2.16c.6.597 1.567.597 2.165.002l3.191-3.188a1.524 1.524 0 0 0 0-2.157l-.002-.001Zm-25.55.002a1.528 1.528 0 0 0-2.164 2.156l3.191 3.186a1.53 1.53 0 0 0 2.163 0 1.528 1.528 0 0 0 0-2.16l-3.19-3.183Zm11.693-5.733c-.843 0-1.529.683-1.529 1.527v4.502c0 .424.173.804.45 1.08a1.528 1.528 0 0 0 2.608-1.08V16.34c0-.844-.684-1.527-1.529-1.527Z" fill="#fff"/></svg>