<svg width="10" height="16" viewBox="0 0 10 16" fill="none" xmlns="http://www.w3.org/2000/svg">
<path fill-rule="evenodd" clip-rule="evenodd" d="M5 6.44452C4.03804 6.44452 3.25973 5.70036 3.25973 4.78061C3.25973 3.86295 4.03804 3.11879 5 3.11879C5.95977 3.11879 6.73809 3.86295 6.73809 4.78061C6.73809 5.70036 5.95977 6.44452 5 6.44452ZM5 0C2.23874 0 0 2.14051 0 4.78061C0 6.70791 2.6585 12.471 4.09926 15.4497C4.45343 16.1834 5.54438 16.1834 5.90074 15.4497C7.33931 12.471 10 6.70791 10 4.78061C10 2.14051 7.76126 0 5 0Z" fill="white"/>
</svg>
