<svg width="24" height="20" viewBox="0 0 24 20" fill="none" xmlns="http://www.w3.org/2000/svg">
<path d="M24 2.55654C23.1169 2.94873 22.168 3.21203 21.1724 3.3327C22.1899 2.72384 22.9688 1.75844 23.3363 0.609283C22.3846 1.17426 21.3288 1.58291 20.2098 1.80506C19.313 0.84789 18.0322 0.25 16.6171 0.25C13.8965 0.25 11.6915 2.45232 11.6915 5.173C11.6915 5.5597 11.7353 5.93544 11.8176 6.29473C7.72575 6.08903 4.09736 4.1308 1.67021 1.14958C1.24786 1.87637 1.00377 2.72384 1.00377 3.62616C1.00377 5.33481 1.87316 6.84051 3.19232 7.72363C2.38601 7.69895 1.62633 7.47679 0.962633 7.10654V7.16962C0.962633 9.5557 2.66027 11.5441 4.9119 11.9966C4.50051 12.1091 4.06445 12.1694 3.61467 12.1694C3.29654 12.1694 2.98937 12.1392 2.69044 12.0816C3.31574 14.0371 5.13404 15.4605 7.28694 15.5017C5.60302 16.8209 3.48303 17.608 1.17381 17.608C0.77614 17.608 0.386699 17.5861 0 17.5395C2.18032 18.9354 4.76654 19.75 7.54748 19.75C16.6034 19.75 21.5564 12.2489 21.5564 5.74346C21.5564 5.52954 21.5509 5.31835 21.5427 5.10717C22.5053 4.41055 23.3418 3.54388 24 2.55654Z" fill="#C0C0C0"/>
</svg>
